Coordinates
version=1
nRows=16
nColumns=40
inDegrees=yes

Units are S.I. units (second, meters, Newtons, ...)
Angles are in degrees.

endheader
time	pelvis_tilt	pelvis_list	pelvis_rotation	pelvis_tx	pelvis_ty	pelvis_tz	hip_flexion_r	hip_adduction_r	hip_rotation_r	knee_angle_r	knee_angle_r_beta	ankle_angle_r	subtalar_angle_r	mtp_angle_r	hip_flexion_l	hip_adduction_l	hip_rotation_l	knee_angle_l	knee_angle_l_beta	ankle_angle_l	subtalar_angle_l	mtp_angle_l	lumbar_extension	lumbar_bending	lumbar_rotation	arm_flex_r	arm_add_r	arm_rot_r	elbow_flex_r	pro_sup_r	wrist_flex_r	wrist_dev_r	arm_flex_l	arm_add_l	arm_rot_l	elbow_flex_l	pro_sup_l	wrist_flex_l	wrist_dev_l
     23.20500000	     -5.62591998	     -7.16500761	      7.21581948	      1.06925006	      0.91574247	      0.45863402	      1.62813815	      6.19570995	    -16.94753387	     10.77222985	     10.77222985	     17.37874511	      2.96714717	     -3.95477571	     35.83307878	     -8.90672493	     -3.15734382	     18.49257295	     18.49257295	      4.47483699	     -6.45991486	      9.42260299	    -11.93399354	      6.28945038	      3.86874307	     51.03094285	    -15.12050890	      4.50706006	     96.21995403	     44.14371707	      0.00000000	      0.00000000	    -16.68897398	     -7.76361758	     -6.12766608	     24.63099591	     46.60961440	      0.00000000	      0.00000000
     23.21635714	     -5.67180033	     -7.21165975	      6.93293909	      1.07111248	      0.91405772	      0.45690694	      1.04458265	      6.15413543	    -16.67358286	     10.95913628	     10.95913628	     18.06554618	      3.14856759	     -3.62952198	     35.54927751	     -8.91599838	     -3.02295515	     19.46134434	     19.46134434	      3.67337003	     -8.05657567	      9.08031741	    -11.64176990	      6.24650921	      3.77158562	     51.42114797	    -14.46712341	      4.73793270	     98.58167943	     44.07859090	      0.00000000	      0.00000000	    -17.65597185	     -7.69447580	     -5.99416381	     24.71566231	     46.55566134	      0.00000000	      0.00000000
     23.22771429	     -5.73036153	     -7.11508879	      6.55971122	      1.07304997	      0.91246852	      0.45508233	      0.62045290	      5.87920326	    -16.35956505	     11.51373385	     11.51373385	     19.15588482	      3.37144719	     -2.32496131	     35.07302945	     -8.76518428	     -2.70620701	     20.15667813	     20.15667813	      2.28704992	    -10.13586563	      7.74423188	    -11.39666436	      5.99684832	      4.30051259	     51.19583954	    -14.72813701	      4.78321039	    101.95215609	     44.02005322	      0.00000000	      0.00000000	    -18.52225611	     -7.81416598	     -5.58129327	     25.75726073	     46.43344395	      0.00000000	      0.00000000
     23.23907143	     -5.70038602	     -7.00831637	      6.13225243	      1.07501008	      0.91101308	      0.45333959	      0.05816136	      5.61477055	    -15.90684357	     11.92151090	     11.92151090	     19.68700692	      3.40402206	     -2.36122358	     34.78244808	     -8.80363840	     -2.84303927	     21.43055760	     21.43055760	      1.91801013	    -11.09151900	      7.56700364	    -11.14932215	      5.75810201	      4.37900044	     51.50904064	    -14.19539171	      4.92682449	    102.87227869	     43.99329661	      0.00000000	      0.00000000	    -19.11708727	     -7.72109408	     -5.50572501	     25.56168690	     46.40717745	      0.00000000	      0.00000000
     23.25042857	     -5.78487802	     -6.96749600	      5.81831823	      1.07664056	      0.90941826	      0.45132777	      0.08786414	      5.29005970	    -15.45519666	     13.22059934	     13.22059934	     20.77886848	      2.96025491	     -1.09100490	     34.62515655	     -8.66067223	     -2.19932880	     22.50009606	     22.50009606	      0.92961845	    -13.09221847	      6.31644332	    -10.95289858	      5.63306029	      4.56044537	     51.24767218	    -14.06665233	      5.16323105	    106.42260307	     43.93617307	      0.00000000	      0.00000000	    -19.77974593	     -7.73196196	     -4.90542892	     26.26686932	     46.26558858	      0.00000000	      0.00000000
     23.26178571	     -5.77531488	     -6.80526122	      5.45825184	      1.07820517	      0.90827671	      0.44929776	      0.05401016	      4.82014637	    -14.94645523	     14.54519555	     14.54519555	     21.36406732	      2.47842785	     -1.11515470	     34.48349700	     -8.55861402	     -2.06039870	     23.81824145	     23.81824145	      0.81084051	    -14.12636817	      6.00512126	    -10.81804844	      5.35009642	      4.34725265	     51.19798267	    -13.43089857	      5.48325021	    108.05301351	     43.89743639	      0.00000000	      0.00000000	    -20.12051012	     -7.57615124	     -4.64891829	     26.19675143	     46.21064812	      0.00000000	      0.00000000
     23.27314286	     -5.69751436	     -6.64978521	      5.12261371	      1.07961982	      0.90750218	      0.44709914	      0.12087318	      4.31006273	    -14.45009368	     16.15418962	     16.15418962	     21.77078917	      1.89950095	     -1.35785652	     34.32032524	     -8.45178263	     -1.86943890	     25.15873996	     25.15873996	      1.04418690	    -15.01714881	      5.72795318	    -10.78756396	      5.12076899	      4.21102502	     51.13825674	    -12.95561518	      5.77612176	    109.51244676	     43.85447468	      0.00000000	      0.00000000	    -20.28429905	     -7.40792601	     -4.52170310	     26.16253871	     46.18352086	      0.00000000	      0.00000000
     23.28450000	     -5.67527787	     -6.40201750	      4.75746422	      1.08080547	      0.90709913	      0.44480941	      0.50761453	      3.66364474	    -13.72175225	     18.19414117	     18.19414117	     21.99774581	      0.82720117	     -1.67557900	     34.15787143	     -8.23712957	     -1.74419959	     26.36179526	     26.36179526	      1.60591576	    -15.84893044	      5.95716699	    -10.78800541	      4.76837263	      4.55625569	     50.34255112	    -13.27155314	      6.01477526	    112.19515367	     43.81023888	      0.00000000	      0.00000000	    -20.06814397	     -7.37018772	     -4.16574305	     26.28154593	     46.12004565	      0.00000000	      0.00000000
     23.29585714	     -5.62387886	     -6.15966841	      4.45012641	      1.08176844	      0.90701415	      0.44234051	      1.10736965	      2.92670007	    -13.24420197	     20.65342053	     20.65342053	     22.03273368	      0.00165766	     -2.35509915	     33.95756646	     -8.04281666	     -1.76529623	     27.46678905	     27.46678905	      2.27615504	    -16.28760011	      5.82529922	    -10.78601787	      4.47334793	      4.29757242	     49.79488329	    -12.82985649	      6.36217254	    113.48589237	     43.77370567	      0.00000000	      0.00000000	    -19.87495146	     -7.17941748	     -3.99130012	     26.16115588	     46.09330969	      0.00000000	      0.00000000
     23.30721429	     -5.51506746	     -5.91187735	      4.15275211	      1.08262602	      0.90738250	      0.43973051	      1.81233911	      2.18224759	    -12.68542615	     23.30491278	     23.30491278	     21.36350578	     -1.31965115	     -4.20650188	     33.66848910	     -7.81850685	     -1.80587809	     28.53927749	     28.53927749	      3.59683317	    -16.60624451	      6.73724001	    -10.91926489	      4.18430175	      4.62621217	     48.69836856	    -13.27301059	      6.55483239	    115.81412174	     43.75538826	      0.00000000	      0.00000000	    -19.05623493	     -7.13625337	     -3.54827169	     25.81090915	     46.03355530	      0.00000000	      0.00000000
     23.31857143	     -5.41297268	     -5.65226224	      3.87846918	      1.08327122	      0.90798252	      0.43697274	      2.82070118	      1.30855684	    -12.35148147	     26.50821003	     26.50821003	     20.82888686	     -2.29355871	     -5.18021613	     33.23714982	     -7.59253590	     -2.03680839	     29.27357369	     29.27357369	      4.47425390	    -16.80309119	      6.51328606	    -10.98930931	      3.93955558	      4.27005990	     47.80005889	    -12.89481155	      6.96237209	    116.65310379	     43.72609244	      0.00000000	      0.00000000	    -18.55567212	     -6.91919090	     -3.40923146	     25.78025573	     46.01938411	      0.00000000	      0.00000000
     23.32992857	     -5.33590404	     -5.37576422	      3.58556963	      1.08371575	      0.90878557	      0.43420895	      4.07771330	      0.38362115	    -11.95204044	     30.01134301	     30.01134301	     19.88904084	     -3.41040909	     -6.29459950	     32.71843851	     -7.34442229	     -2.32090948	     29.79484538	     29.79484538	      5.40992053	    -16.91457349	      6.33205603	    -11.07640478	      3.65942626	      3.99104111	     46.67953412	    -12.74621181	      7.42487610	    117.56805126	     43.68936176	      0.00000000	      0.00000000	    -17.86085706	     -6.75858197	     -3.30282758	     25.80562300	     46.01451031	      0.00000000	      0.00000000
     23.34128571	     -5.29126365	     -5.11355424	      3.31165084	      1.08397623	      0.90972729	      0.43145572	      5.56142960	     -0.54243671	    -11.60163094	     33.74119229	     33.74119229	     18.47202810	     -4.71257866	     -7.61061582	     32.15075373	     -7.09742746	     -2.66868524	     30.13448024	     30.13448024	      6.29935875	    -16.93529687	      6.20942409	    -11.15793471	      3.38760025	      3.78853468	     45.26440795	    -12.77645386	      7.91462661	    118.50544547	     43.65015845	      0.00000000	      0.00000000	    -17.00174977	     -6.62540216	     -3.20383856	     25.85126266	     46.01408904	      0.00000000	      0.00000000
     23.35264286	     -5.13903366	     -4.85528430	      3.05693501	      1.08419111	      0.91091308	      0.42870994	      7.06844068	     -1.48765602	    -11.31116209	     37.62663224	     37.62663224	     16.70624945	     -6.07209986	     -8.72917318	     31.39431051	     -6.86875412	     -3.13648248	     30.33812260	     30.33812260	      7.10104773	    -16.89946538	      6.03314506	    -11.29700772	      3.20950291	      3.55929905	     43.65920001	    -12.81165509	      8.38616347	    119.14588517	     43.61688453	      0.00000000	      0.00000000	    -16.00699048	     -6.53426216	     -3.12649894	     25.99301455	     46.01941244	      0.00000000	      0.00000000
     23.36400000	     -5.11639281	     -4.73160224	      2.80194849	      1.08413878	      0.91215636	      0.42616545	      8.67012911	     -2.13179546	    -10.81477804	     40.96680712	     40.96680712	     12.42549077	     -9.34929961	    -14.90756686	     30.71559097	     -6.74876421	     -3.50194503	     30.37021914	     30.37021914	      8.05185483	    -16.66573151	      6.39071488	    -11.42359150	      3.11986163	      4.50673247	     41.09952032	    -14.37217053	      8.21676953	    121.86574594	     43.59603441	      0.00000000	      0.00000000	    -13.99850129	     -6.56302314	     -2.75543354	     25.36263564	     45.99931002	      0.00000000	      0.00000000
     23.37535714	     -5.01585245	     -4.48332239	      2.57209997	      1.08403712	      0.91335785	      0.42360795	     10.51274780	     -3.12163908	    -10.68312857	     45.06192634	     45.06192634	     10.13103296	    -10.59480775	    -15.09504429	     29.86902116	     -6.50175172	     -3.97764072	     30.26504892	     30.26504892	      8.67784541	    -16.48721613	      6.06738980	    -11.52055918	      2.92577517	      3.95174562	     39.30864060	    -14.03696156	      8.61611933	    121.51356996	     43.59273681	      0.00000000	      0.00000000	    -13.05518877	     -6.52939529	     -2.68364472	     25.65147529	     46.00348463	      0.00000000	      0.00000000
